<svg width="98" height="96" viewBox="0 0 98 96" fill="none" xmlns="http://www.w3.org/2000/svg">
<g id="clear-cloudy">
<path id="Vector" fill-rule="evenodd" clip-rule="evenodd" d="M82.5 34C82.5 43.1127 75.1127 50.5 66 50.5C56.8873 50.5 49.5 43.1127 49.5 34C49.5 24.8873 56.8873 17.5 66 17.5C75.1127 17.5 82.5 24.8873 82.5 34Z" stroke="#231815" stroke-width="2"/>
<path id="Vector_2" d="M95 33.5H88" stroke="#F25022" stroke-width="2" stroke-linecap="round" stroke-linejoin="round"/>
<path id="Vector_3" d="M44 33.5H37" stroke="#F25022" stroke-width="2" stroke-linecap="round" stroke-linejoin="round"/>
<path id="Vector_4" d="M95 33.5H88" stroke="#231815" stroke-width="2" stroke-linecap="round" stroke-linejoin="round"/>
<path id="Vector_5" d="M44 33.5H37" stroke="#231815" stroke-width="2" stroke-linecap="round" stroke-linejoin="round"/>
<g id="Group">
<path id="Vector_6" d="M91.3647 48.067L85.3026 44.567" stroke="#231815" stroke-width="2" stroke-linecap="round" stroke-linejoin="round"/>
</g>
<g id="Group_2">
<path id="Vector_7" d="M80.933 58.8647L77.433 52.8026" stroke="#231815" stroke-width="2" stroke-linecap="round" stroke-linejoin="round"/>
</g>
<g id="Group_3">
<path id="Vector_8" d="M55.433 14.6974L51.933 8.63525" stroke="#231815" stroke-width="2" stroke-linecap="round" stroke-linejoin="round"/>
</g>
<g id="Group_4">
<path id="Vector_9" d="M66.5 63V56" stroke="#231815" stroke-width="2" stroke-linecap="round" stroke-linejoin="round"/>
</g>
<g id="Group_5">
<path id="Vector_10" d="M66.5 12V5" stroke="#231815" stroke-width="2" stroke-linecap="round" stroke-linejoin="round"/>
</g>
<g id="Group_6">
<path id="Vector_11" d="M51.933 59.3647L55.433 53.3026" stroke="#231815" stroke-width="2" stroke-linecap="round" stroke-linejoin="round"/>
</g>
<g id="Group_7">
<path id="Vector_12" d="M77.433 15.1974L80.933 9.13525" stroke="#231815" stroke-width="2" stroke-linecap="round" stroke-linejoin="round"/>
</g>
<g id="Group_8">
<path id="Vector_13" d="M41.1353 48.933L47.1974 45.433" stroke="#231815" stroke-width="2" stroke-linecap="round" stroke-linejoin="round"/>
</g>
<g id="Group_9">
<path id="Vector_14" d="M85.3025 23.433L91.3647 19.933" stroke="#231815" stroke-width="2" stroke-linecap="round" stroke-linejoin="round"/>
</g>
<path id="Vector_15" d="M81 34C81 42.2843 74.2843 49 66 49C57.7157 49 51 42.2843 51 34C51 25.7157 57.7157 19 66 19C74.2843 19 81 25.7157 81 34Z" fill="#FFB900"/>
<path id="Vector_16" fill-rule="evenodd" clip-rule="evenodd" d="M67.6255 42.1281C67.6255 42.1281 67.9941 44 68.1198 44.0179C74.9073 44.9858 80 48.945 80 56C80 63.732 73.732 70 66 70H30C22.268 70 16 63.732 16 56C16 48.945 21.2185 43.1088 28.0059 42.1409C28.1317 42.123 28.2549 42.1192 28.3745 42.1281C30.1778 32.9354 38.279 26 48 26C57.721 26 65.8222 32.9354 67.6255 42.1281Z" fill="#F3F3F3"/>
<path id="Vector_17" d="M31.0588 70C22.7421 70 16 63.4335 16 55.3333C16 48.2582 21.1436 42.3532 27.9876 40.9719C30.3403 32.3517 38.4086 26 48 26C58.843 26 67.7393 34.1175 68.6322 44.4532C75.0536 45.3118 80 50.6766 80 57.1667C80 64.2543 74.1007 70 66.8235 70H31.0588Z" stroke="#231815" stroke-width="2" stroke-linecap="round" stroke-linejoin="round"/>
</g>
</svg>
