<svg width="96" height="96" viewBox="0 0 96 96" fill="none" xmlns="http://www.w3.org/2000/svg">
<g id="cloudy">
<path id="Vector" fill-rule="evenodd" clip-rule="evenodd" d="M67.6255 42.1281C67.6255 42.1281 67.9941 44 68.1198 44.0179C74.9073 44.9858 80 48.945 80 56C80 63.732 73.732 70 66 70H30C22.268 70 16 63.732 16 56C16 48.945 21.2185 43.1088 28.0059 42.1409C28.1317 42.123 28.2549 42.1192 28.3745 42.1281C30.1778 32.9354 38.279 26 48 26C57.721 26 65.8222 32.9354 67.6255 42.1281Z" fill="#F3F3F3"/>
<path id="Vector_2" d="M31.0588 70C22.7421 70 16 63.4335 16 55.3333C16 48.2582 21.1436 42.3532 27.9876 40.9719C30.3403 32.3517 38.4086 26 48 26C58.843 26 67.7393 34.1175 68.6322 44.4532C75.0536 45.3118 80 50.6766 80 57.1667C80 64.2543 74.1007 70 66.8235 70H31.0588Z" stroke="#231815" stroke-width="2" stroke-linecap="round" stroke-linejoin="round"/>
</g>
</svg>
