<svg width="96" height="96" viewBox="0 0 96 96" fill="none" xmlns="http://www.w3.org/2000/svg">
<g id="hail">
<path id="Vector" fill-rule="evenodd" clip-rule="evenodd" d="M67.6255 42.1281C67.6255 42.1281 67.9941 44 68.1198 44.0179C74.9073 44.9858 80 48.945 80 56C80 63.732 73.732 70 66 70H30C22.268 70 16 63.732 16 56C16 48.945 21.2185 43.1088 28.0059 42.1409C28.1317 42.123 28.2549 42.1192 28.3745 42.1281C30.1778 32.9354 38.279 26 48 26C57.721 26 65.8222 32.9354 67.6255 42.1281Z" fill="#F3F3F3"/>
<path id="Vector_2" d="M66 70H66.8235C74.1007 70 80 64.2543 80 57.1667C80 50.6766 75.0536 45.3118 68.6322 44.4532C67.7393 34.1175 58.843 26 48 26C38.4086 26 30.3403 32.3517 27.9876 40.9719C21.1436 42.3532 16 48.2582 16 55.3333C16 63.0868 22.1773 69.4351 30 69.9643" stroke="#231815" stroke-width="2" stroke-linecap="round" stroke-linejoin="round"/>
<path id="Vector_3" d="M42 69C42 70.6569 40.6569 72 39 72C37.3431 72 36 70.6569 36 69C36 67.3431 37.3431 66 39 66C40.6569 66 42 67.3431 42 69Z" fill="#231815"/>
<path id="Vector_4" d="M51 73C51 74.6569 49.6569 76 48 76C46.3431 76 45 74.6569 45 73C45 71.3431 46.3431 70 48 70C49.6569 70 51 71.3431 51 73Z" fill="#231815"/>
<path id="Vector_5" d="M51 63C51 64.6569 49.6569 66 48 66C46.3431 66 45 64.6569 45 63C45 61.3431 46.3431 60 48 60C49.6569 60 51 61.3431 51 63Z" fill="#231815"/>
<path id="Vector_6" d="M60 69C60 70.6569 58.6569 72 57 72C55.3431 72 54 70.6569 54 69C54 67.3431 55.3431 66 57 66C58.6569 66 60 67.3431 60 69Z" fill="#231815"/>
<path id="Vector_7" d="M42 77C42 78.6569 40.6569 80 39 80C37.3431 80 36 78.6569 36 77C36 75.3431 37.3431 74 39 74C40.6569 74 42 75.3431 42 77Z" fill="#231815"/>
<path id="Vector_8" d="M60 77C60 78.6569 58.6569 80 57 80C55.3431 80 54 78.6569 54 77C54 75.3431 55.3431 74 57 74C58.6569 74 60 75.3431 60 77Z" fill="#231815"/>
</g>
</svg>
