<svg width="96" height="96" viewBox="0 0 96 96" fill="none" xmlns="http://www.w3.org/2000/svg">
<g id="isolated-thunderstorms">
<path id="Vector" fill-rule="evenodd" clip-rule="evenodd" d="M67.6255 42.1281C67.6255 42.1281 67.9941 44 68.1198 44.0179C74.9073 44.9858 80 48.945 80 56C80 63.732 73.732 70 66 70H30C22.268 70 16 63.732 16 56C16 48.945 21.2185 43.1088 28.0059 42.1409C28.1317 42.123 28.2549 42.1192 28.3745 42.1281C30.1778 32.9354 38.279 26 48 26C57.721 26 65.8222 32.9354 67.6255 42.1281Z" fill="#F3F3F3"/>
<path id="Vector_2" d="M66 70H66.8235C74.1007 70 80 64.2543 80 57.1667C80 50.6766 75.0536 45.3118 68.6322 44.4532C67.7393 34.1175 58.843 26 48 26C38.4086 26 30.3403 32.3517 27.9876 40.9719C21.1436 42.3532 16 48.2582 16 55.3333C16 63.0868 22.1773 69.4351 30 69.9643" stroke="#231815" stroke-width="2" stroke-linecap="round" stroke-linejoin="round"/>
<path id="Vector_3" fill-rule="evenodd" clip-rule="evenodd" d="M56 56C52.6863 56 50 58.6863 50 62V62.5455C50 63.65 50.8954 64.5455 52 64.5455C53.1046 64.5455 54 63.65 54 62.5455V62C54 60.8954 54.8954 60 56 60C57.1046 60 58 60.8954 58 62V63C58 64.6569 56.6569 66 55 66H53C51.8954 66 51 66.8954 51 68C51 69.1046 51.8954 70 53 70H55C58.866 70 62 66.866 62 63V62C62 58.6863 59.3137 56 56 56ZM57 88C53.134 88 50 84.866 50 81V80C50 78.8954 50.8954 78 52 78C53.1046 78 54 78.8954 54 80V81C54 82.6569 55.3431 84 57 84C58.6569 84 60 82.6569 60 81V80C60 77.7909 58.2091 76 56 76H48C46.8954 76 46 75.1046 46 74C46 72.8954 46.8954 72 48 72H56C60.4183 72 64 75.5817 64 80V81C64 84.866 60.866 88 57 88Z" fill="#231815"/>
<path id="Vector_4" d="M49.9616 66.3745C49.8792 66.1353 49.6747 65.9625 49.4314 65.9265L41.9893 64.8233L45.4034 56.9637C45.4946 56.7521 45.4765 56.5067 45.3538 56.3118C45.2318 56.1175 45.022 56 44.7975 56H34.4044C34.0472 56 33.7543 56.2917 33.7416 56.6594L33.2631 70.627C33.251 70.9761 33.4963 71.2782 33.8314 71.3279L39.0055 72.0959L32.0828 84.9852C31.9206 85.2887 32.003 85.6682 32.2751 85.8714C32.3924 85.9586 32.5278 86 32.6631 86C32.8427 86 33.021 85.9247 33.1511 85.7787L49.8255 67.0665C49.9917 66.8798 50.044 66.6136 49.9616 66.3745Z" fill="#FFB900"/>
</g>
</svg>
