<svg width="96" height="96" viewBox="0 0 96 96" fill="none" xmlns="http://www.w3.org/2000/svg">
<g id="mostly-cloudy">
<path id="Vector" fill-rule="evenodd" clip-rule="evenodd" d="M44.7191 29.5961C44.7191 29.5961 44.9955 31 45.0899 31.0135C50.1805 31.7394 54 34.7087 54 40C54 45.799 49.299 50.5 43.5 50.5H16.5C10.701 50.5 6 45.799 6 40C6 34.7087 9.91384 30.3316 15.0045 29.6057C15.0988 29.5922 15.1912 29.5894 15.2809 29.5961C16.6333 22.7016 22.7092 17.5 30 17.5C37.2908 17.5 43.3667 22.7016 44.7191 29.5961Z" fill="#F3F3F3"/>
<path id="Vector_2" d="M17.2941 50.5C11.0565 50.5 6 45.5751 6 39.5C6 34.1937 9.85774 29.7649 14.9907 28.729C16.7552 22.2638 22.8064 17.5 30 17.5C38.1322 17.5 44.8045 23.5881 45.4741 31.3399C50.2902 31.9838 54 36.0075 54 40.875C54 46.1907 49.5755 50.5 44.1176 50.5H17.2941Z" stroke="#231815" stroke-width="2" stroke-linecap="round" stroke-linejoin="round"/>
<path id="Vector_3" fill-rule="evenodd" clip-rule="evenodd" d="M67.6255 42.1281C67.6255 42.1281 67.9941 44 68.1198 44.0179C74.9073 44.9858 80 48.945 80 56C80 63.732 73.732 70 66 70H30C22.268 70 16 63.732 16 56C16 48.945 21.2185 43.1088 28.0059 42.1409C28.1317 42.123 28.2549 42.1192 28.3745 42.1281C30.1778 32.9354 38.279 26 48 26C57.721 26 65.8222 32.9354 67.6255 42.1281Z" fill="#F3F3F3"/>
<path id="Vector_4" d="M31.0588 70C22.7421 70 16 63.4335 16 55.3333C16 48.2582 21.1436 42.3532 27.9876 40.9719C30.3403 32.3517 38.4086 26 48 26C58.843 26 67.7393 34.1175 68.6322 44.4532C75.0536 45.3118 80 50.6766 80 57.1667C80 64.2543 74.1007 70 66.8235 70H31.0588Z" stroke="#231815" stroke-width="2" stroke-linecap="round" stroke-linejoin="round"/>
</g>
</svg>
