<svg width="96" height="96" viewBox="0 0 96 96" fill="none" xmlns="http://www.w3.org/2000/svg">
<g id="sleet">
<g id="main/cloudHalf">
<g id="main/cloud">
<path id="cloud-bg" fill-rule="evenodd" clip-rule="evenodd" d="M67.6255 42.1281C67.6255 42.1281 67.9941 44 68.1198 44.0179C74.9073 44.9858 80 48.945 80 56C80 63.732 73.732 70 66 70H30C22.268 70 16 63.732 16 56C16 48.945 21.2185 43.1088 28.0059 42.1409C28.1317 42.123 28.2549 42.1192 28.3745 42.1281C30.1778 32.9354 38.279 26 48 26C57.721 26 65.8222 32.9354 67.6255 42.1281Z" fill="#F3F3F3"/>
<path id="cloudBaseHalf" d="M66 70H66.8235C74.1007 70 80 64.2543 80 57.1667C80 50.6766 75.0536 45.3118 68.6322 44.4532C67.7393 34.1175 58.843 26 48 26C38.4086 26 30.3403 32.3517 27.9876 40.9719C21.1436 42.3532 16 48.2582 16 55.3333C16 63.0868 22.1773 69.4351 30 69.9643" stroke="#231815" stroke-width="2" stroke-linecap="round" stroke-linejoin="round"/>
</g>
</g>
<g id="mini/snowRain">
<g id="Vector">
<path fill-rule="evenodd" clip-rule="evenodd" d="M51.7321 72.3588C50.7755 71.8065 50.5223 70.454 51.1667 69.338L55.8333 61.2551C56.4777 60.1391 57.7755 59.6821 58.732 60.2344C59.6886 60.7867 59.9418 62.1391 59.2974 63.2551L54.6308 71.338C53.9864 72.454 52.6886 72.911 51.7321 72.3588Z" fill="#231815"/>
<path fill-rule="evenodd" clip-rule="evenodd" d="M53.732 82.3588C52.7755 81.8065 52.5223 80.454 53.1667 79.338L57.8333 71.2551C58.4777 70.1391 59.7755 69.6821 60.732 70.2344C61.6886 70.7867 61.9418 72.1391 61.2974 73.2551L56.6308 81.338C55.9864 82.454 54.6886 82.911 53.732 82.3588Z" fill="#231815"/>
<path d="M40.5469 64.9844C40.5469 64.0179 41.3304 63.2344 42.2969 63.2344C43.2634 63.2344 44.0469 64.0179 44.0469 64.9844V67.2033L45.9686 66.0938C46.8056 65.6106 47.8759 65.8974 48.3591 66.7344C48.8424 67.5714 48.5556 68.6417 47.7186 69.1249L45.7969 70.2344L47.7186 71.3439C48.5556 71.8271 48.8424 72.8974 48.3591 73.7344C47.8759 74.5714 46.8056 74.8582 45.9686 74.3749L44.0469 73.2655V75.4844C44.0469 76.4509 43.2634 77.2344 42.2969 77.2344C41.3304 77.2344 40.5469 76.4509 40.5469 75.4844V73.2655L38.6253 74.3749C37.7883 74.8582 36.718 74.5714 36.2348 73.7344C35.7515 72.8974 36.0383 71.8271 36.8753 71.3438L38.7969 70.2344L36.8753 69.1249C36.0383 68.6417 35.7515 67.5714 36.2347 66.7344C36.718 65.8974 37.7883 65.6106 38.6253 66.0939L40.5469 67.2033V64.9844Z" fill="#231815"/>
</g>
</g>
</g>
</svg>
