<svg width="96" height="96" viewBox="0 0 96 96" fill="none" xmlns="http://www.w3.org/2000/svg">
<g id="snow">
<path id="Vector" fill-rule="evenodd" clip-rule="evenodd" d="M67.6255 42.1281C67.6255 42.1281 67.9941 44 68.1198 44.0179C74.9073 44.9858 80 48.945 80 56C80 63.732 73.732 70 66 70H30C22.268 70 16 63.732 16 56C16 48.945 21.2185 43.1088 28.0059 42.1409C28.1317 42.123 28.2549 42.1192 28.3745 42.1281C30.1778 32.9354 38.279 26 48 26C57.721 26 65.8222 32.9354 67.6255 42.1281Z" fill="#F3F3F3"/>
<path id="Vector_2" d="M66 70H66.8235C74.1007 70 80 64.2543 80 57.1667C80 50.6766 75.0536 45.3118 68.6322 44.4532C67.7393 34.1175 58.843 26 48 26C38.4086 26 30.3403 32.3517 27.9876 40.9719C21.1436 42.3532 16 48.2582 16 55.3333C16 63.0868 22.1773 69.4351 30 69.9643" stroke="#231815" stroke-width="2" stroke-linecap="round" stroke-linejoin="round"/>
<path id="Vector_3" d="M38.5469 57.75C38.5469 56.7835 39.3304 56 40.2969 56C41.2634 56 42.0469 56.7835 42.0469 57.75V59.9689L43.9686 58.8595C44.8056 58.3762 45.8759 58.663 46.3591 59.5C46.8424 60.337 46.5556 61.4073 45.7186 61.8905L43.7969 63L45.7186 64.1095C46.5556 64.5927 46.8424 65.663 46.3591 66.5C45.8759 67.337 44.8056 67.6238 43.9686 67.1405L42.0469 66.0311V68.25C42.0469 69.2165 41.2634 70 40.2969 70C39.3304 70 38.5469 69.2165 38.5469 68.25V66.0311L36.6253 67.1405C35.7883 67.6238 34.718 67.337 34.2348 66.5C33.7515 65.663 34.0383 64.5927 34.8753 64.1095L36.7969 63L34.8753 61.8905C34.0383 61.4073 33.7515 60.337 34.2347 59.5C34.718 58.663 35.7883 58.3762 36.6253 58.8595L38.5469 59.9689V57.75Z" fill="#00A4EF"/>
<path id="Vector_4" d="M54.5469 61.75C54.5469 60.7835 55.3304 60 56.2969 60C57.2634 60 58.0469 60.7835 58.0469 61.75V63.9689L59.9686 62.8595C60.8056 62.3762 61.8759 62.663 62.3591 63.5C62.8424 64.337 62.5556 65.4073 61.7186 65.8905L59.7969 67L61.7186 68.1095C62.5556 68.5927 62.8424 69.663 62.3591 70.5C61.8759 71.337 60.8056 71.6238 59.9686 71.1405L58.0469 70.0311V72.25C58.0469 73.2165 57.2634 74 56.2969 74C55.3304 74 54.5469 73.2165 54.5469 72.25V70.0311L52.6253 71.1405C51.7883 71.6238 50.718 71.337 50.2348 70.5C49.7515 69.663 50.0383 68.5927 50.8753 68.1095L52.7969 67L50.8753 65.8905C50.0383 65.4073 49.7515 64.337 50.2347 63.5C50.718 62.663 51.7883 62.3762 52.6253 62.8595L54.5469 63.9689V61.75Z" fill="#00A4EF"/>
<path id="Vector_5" d="M42.5469 72.75C42.5469 71.7835 43.3304 71 44.2969 71C45.2634 71 46.0469 71.7835 46.0469 72.75V74.9689L47.9686 73.8595C48.8056 73.3762 49.8759 73.663 50.3591 74.5C50.8424 75.337 50.5556 76.4073 49.7186 76.8905L47.7969 78L49.7186 79.1095C50.5556 79.5927 50.8424 80.663 50.3591 81.5C49.8759 82.337 48.8056 82.6238 47.9686 82.1405L46.0469 81.0311V83.25C46.0469 84.2165 45.2634 85 44.2969 85C43.3304 85 42.5469 84.2165 42.5469 83.25V81.0311L40.6253 82.1405C39.7883 82.6238 38.718 82.337 38.2348 81.5C37.7515 80.663 38.0383 79.5927 38.8753 79.1095L40.7969 78L38.8753 76.8905C38.0383 76.4073 37.7515 75.337 38.2347 74.5C38.718 73.663 39.7883 73.3762 40.6253 73.8595L42.5469 74.9689V72.75Z" fill="#00A4EF"/>
</g>
</svg>
