<svg width="96" height="96" viewBox="0 0 96 96" fill="none" xmlns="http://www.w3.org/2000/svg">
<g id="snow-flurries">
<path id="Vector" fill-rule="evenodd" clip-rule="evenodd" d="M67.6255 42.1281C67.6255 42.1281 67.9941 44 68.1198 44.0179C74.9073 44.9858 80 48.945 80 56C80 63.732 73.732 70 66 70H30C22.268 70 16 63.732 16 56C16 48.945 21.2185 43.1088 28.0059 42.1409C28.1317 42.123 28.2549 42.1192 28.3745 42.1281C30.1778 32.9354 38.279 26 48 26C57.721 26 65.8222 32.9354 67.6255 42.1281Z" fill="#F3F3F3"/>
<path id="Vector_2" d="M66 70H66.8235C74.1007 70 80 64.2543 80 57.1667C80 50.6766 75.0536 45.3118 68.6322 44.4532C67.7393 34.1175 58.843 26 48 26C38.4086 26 30.3403 32.3517 27.9876 40.9719C21.1436 42.3532 16 48.2582 16 55.3333C16 63.0868 22.1773 69.4351 30 69.9643" stroke="#231815" stroke-width="2" stroke-linecap="round" stroke-linejoin="round"/>
<path id="Vector_3" fill-rule="evenodd" clip-rule="evenodd" d="M46.5469 65.75C46.5469 64.7835 47.3304 64 48.2969 64C49.2634 64 50.0469 64.7835 50.0469 65.75V67.9689L51.9686 66.8595C52.8056 66.3762 53.8759 66.663 54.3591 67.5C54.8424 68.337 54.5556 69.4073 53.7186 69.8905L51.7969 71L53.7186 72.1095C54.5556 72.5927 54.8424 73.663 54.3591 74.5C53.8759 75.337 52.8056 75.6238 51.9686 75.1405L50.0469 74.0311V76.25C50.0469 77.2165 49.2634 78 48.2969 78C47.3304 78 46.5469 77.2165 46.5469 76.25V74.0311L44.6253 75.1405C43.7883 75.6238 42.718 75.337 42.2348 74.5C41.7515 73.663 42.0383 72.5927 42.8753 72.1095L44.7969 71L42.8753 69.8905C42.0383 69.4073 41.7515 68.337 42.2347 67.5C42.718 66.663 43.7883 66.3762 44.6253 66.8595L46.5469 67.9689V65.75Z" fill="#00A4EF"/>
</g>
</svg>
