<svg width="96" height="96" viewBox="0 0 96 96" fill="none" xmlns="http://www.w3.org/2000/svg">
<g id="thunderstorm">
<path id="Vector" fill-rule="evenodd" clip-rule="evenodd" d="M67.6255 42.1281C67.6255 42.1281 67.9941 44 68.1198 44.0179C74.9073 44.9858 80 48.945 80 56C80 63.732 73.732 70 66 70H30C22.268 70 16 63.732 16 56C16 48.945 21.2185 43.1088 28.0059 42.1409C28.1317 42.123 28.2549 42.1192 28.3745 42.1281C30.1778 32.9354 38.279 26 48 26C57.721 26 65.8222 32.9354 67.6255 42.1281Z" fill="#F3F3F3"/>
<path id="Vector_2" d="M66 70H66.8235C74.1007 70 80 64.2543 80 57.1667C80 50.6766 75.0536 45.3118 68.6322 44.4532C67.7393 34.1175 58.843 26 48 26C38.4086 26 30.3403 32.3517 27.9876 40.9719C21.1436 42.3532 16 48.2582 16 55.3333C16 63.0868 22.1773 69.4351 30 69.9643" stroke="#231815" stroke-width="2" stroke-linecap="round" stroke-linejoin="round"/>
<path id="Vector_3" fill-rule="evenodd" clip-rule="evenodd" d="M53.7321 75.1244C52.7755 74.5721 52.5223 73.2197 53.1667 72.1037L57.8333 64.0208C58.4777 62.9047 59.7755 62.4478 60.7321 63C61.6886 63.5523 61.9418 64.9047 61.2974 66.0208L56.6308 74.1037C55.9864 75.2197 54.6886 75.6767 53.7321 75.1244Z" fill="#00A4EF"/>
<path id="Vector_4" d="M51.9616 66.3745C51.8792 66.1353 51.6747 65.9625 51.4314 65.9265L43.9893 64.8233L47.4034 56.9637C47.4946 56.7521 47.4765 56.5067 47.3538 56.3118C47.2318 56.1175 47.022 56 46.7975 56H36.4044C36.0472 56 35.7543 56.2917 35.7416 56.6594L35.2631 70.627C35.251 70.9761 35.4963 71.2782 35.8314 71.3279L41.0055 72.0959L34.0828 84.9852C33.9206 85.2887 34.003 85.6682 34.2751 85.8714C34.3924 85.9586 34.5278 86 34.6631 86C34.8427 86 35.021 85.9247 35.1511 85.7787L51.8255 67.0665C51.9917 66.8798 52.044 66.6136 51.9616 66.3745Z" fill="#FFB900"/>
</g>
</svg>
