<svg width="96" height="96" viewBox="0 0 96 96" fill="none" xmlns="http://www.w3.org/2000/svg">
<g id="tornado">
<path id="Vector" fill-rule="evenodd" clip-rule="evenodd" d="M67.6255 42.1281C67.6255 42.1281 67.9941 44 68.1198 44.0179C74.9073 44.9858 80 48.945 80 56C80 63.732 73.732 70 66 70H30C22.268 70 16 63.732 16 56C16 48.945 21.2185 43.1088 28.0059 42.1409C28.1317 42.123 28.2549 42.1192 28.3745 42.1281C30.1778 32.9354 38.279 26 48 26C57.721 26 65.8222 32.9354 67.6255 42.1281Z" fill="#F3F3F3"/>
<path id="Vector_2" d="M66 70H66.8235C74.1007 70 80 64.2543 80 57.1667C80 50.6766 75.0536 45.3118 68.6322 44.4532C67.7393 34.1175 58.843 26 48 26C38.4086 26 30.3403 32.3517 27.9876 40.9719C21.1436 42.3532 16 48.2582 16 55.3333C16 63.0868 22.1773 69.4351 30 69.9643" stroke="#231815" stroke-width="2" stroke-linecap="round" stroke-linejoin="round"/>
<path id="Vector_3" d="M34 60H56.3944C57.3975 60 58.3342 60.5013 58.8906 61.3359C59.5624 62.3436 59.5624 63.6564 58.8906 64.6641C58.3342 65.4987 57.3975 66 56.3944 66H41.6056C40.6025 66 39.6658 66.5013 39.1094 67.3359C38.4376 68.3436 38.4376 69.6564 39.1094 70.6641C39.6658 71.4987 40.6025 72 41.6056 72H52.3944C53.3975 72 54.3342 72.5013 54.8906 73.3359C55.5624 74.3436 55.5624 75.6564 54.8906 76.6641C54.3342 77.4987 53.3975 78 52.3944 78H45.6056C44.6025 78 43.6658 78.5013 43.1094 79.3359C42.4376 80.3436 42.4376 81.6564 43.1094 82.6641C43.6658 83.4987 44.6025 84 45.6056 84H50" stroke="#231815" stroke-width="2" stroke-linecap="round" stroke-linejoin="round"/>
</g>
</svg>
