<svg width="96" height="96" viewBox="0 0 96 96" fill="none" xmlns="http://www.w3.org/2000/svg">
<g id="windy">
<path id="Vector" fill-rule="evenodd" clip-rule="evenodd" d="M67.6255 42.1281C67.6255 42.1281 67.9941 44 68.1198 44.0179C74.9073 44.9858 80 48.945 80 56C80 63.732 73.732 70 66 70H30C22.268 70 16 63.732 16 56C16 48.945 21.2185 43.1088 28.0059 42.1409C28.1317 42.123 28.2549 42.1192 28.3745 42.1281C30.1778 32.9354 38.279 26 48 26C57.721 26 65.8222 32.9354 67.6255 42.1281Z" fill="#F3F3F3"/>
<path id="Vector_2" d="M66 70H66.8235C74.1007 70 80 64.2543 80 57.1667C80 50.6766 75.0536 45.3118 68.6322 44.4532C67.7393 34.1175 58.843 26 48 26C38.4086 26 30.3403 32.3517 27.9876 40.9719C21.1436 42.3532 16 48.2582 16 55.3333C16 63.0868 22.1773 69.4351 30 69.9643" stroke="#231815" stroke-width="2" stroke-linecap="round" stroke-linejoin="round"/>
<path id="Vector_3" fill-rule="evenodd" clip-rule="evenodd" d="M42 58C42 54.6863 44.6863 52 48 52C51.3137 52 54 54.6863 54 58V59C54 62.866 50.866 66 47 66H34C32.8954 66 32 65.1046 32 64C32 62.8954 32.8954 62 34 62H47C48.6569 62 50 60.6569 50 59V58C50 56.8954 49.1046 56 48 56C46.8954 56 46 56.8954 46 58V58.5455C46 59.65 45.1046 60.5455 44 60.5455C42.8954 60.5455 42 59.65 42 58.5455V58ZM50 83C50 86.866 53.134 90 57 90C60.866 90 64 86.866 64 83V82C64 77.5817 60.4183 74 56 74H36C34.8954 74 34 74.8954 34 76C34 77.1046 34.8954 78 36 78H56C58.2091 78 60 79.7909 60 82V83C60 84.6569 58.6569 86 57 86C55.3431 86 54 84.6569 54 83V82C54 80.8954 53.1046 80 52 80C50.8954 80 50 80.8954 50 82V83ZM38 68C36.8954 68 36 68.8954 36 70C36 71.1046 36.8954 72 38 72H58C59.1046 72 60 71.1046 60 70C60 68.8954 59.1046 68 58 68H38Z" fill="#00A4EF"/>
</g>
</svg>
